<svg width="720" height="960" viewBox="0 0 720 960" fill="none" xmlns="http://www.w3.org/2000/svg">
  <rect width="720" height="960" fill="#0D0B09"/>
  <path d="M0 0H720V960H0V0Z" fill="url(#bg)"/>
  <circle cx="360" cy="278" r="108" fill="#D6D0C4"/>
  <path d="M234 672C250 515 286 424 360 424C434 424 470 515 486 672H234Z" fill="#171717"/>
  <path d="M241 468C273 430 312 411 360 411C408 411 447 430 479 468L438 838H282L241 468Z" fill="#22201D"/>
  <path d="M300 438L360 520L420 438L448 502L390 615H330L272 502L300 438Z" fill="#3F3A33"/>
  <path d="M170 846H550V960H170V846Z" fill="#111111"/>
  <path d="M234 236C252 138 319 94 413 132C474 157 510 218 497 287C459 225 387 210 294 240L234 236Z" fill="#BFB7AA"/>
  <path d="M206 722H514" stroke="#B99A55" stroke-width="6" stroke-linecap="round"/>
  <path d="M286 624H434" stroke="#565049" stroke-width="5" stroke-linecap="round"/>
  <path d="M252 760H468" stroke="#2F2B27" stroke-width="4" stroke-linecap="round"/>
  <rect x="82" y="74" width="556" height="812" rx="22" stroke="#6B6258" stroke-width="8" stroke-dasharray="18 18"/>
  <defs>
    <radialGradient id="bg" cx="0" cy="0" r="1" gradientUnits="userSpaceOnUse" gradientTransform="translate(354 314) rotate(90) scale(646 484)">
      <stop stop-color="#514A3F"/>
      <stop offset="0.48" stop-color="#1C1916"/>
      <stop offset="1" stop-color="#080706"/>
    </radialGradient>
  </defs>
</svg>
