<svg width="1600" height="1000" viewBox="0 0 1600 1000" fill="none" xmlns="http://www.w3.org/2000/svg">
  <rect width="1600" height="1000" fill="#050018"/>
  <path d="M0 0H1600V1000H0V0Z" fill="url(#sky)"/>
  <g filter="url(#holo)">
    <rect x="760" y="120" width="620" height="710" rx="6" fill="#08072A" stroke="#20F7FF" stroke-width="5"/>
    <rect x="800" y="170" width="540" height="610" fill="url(#screen)" stroke="#FF2BD6" stroke-opacity=".75" stroke-width="3"/>
    <path d="M845 250H1230M845 315H1170M845 380H1295M845 512H1225M845 580H1305M845 650H1120" stroke="#20F7FF" stroke-opacity=".44" stroke-width="10"/>
    <path d="M850 720H1190" stroke="#FF2BD6" stroke-width="18" opacity=".78"/>
    <path d="M1270 665L1350 745M1350 665L1270 745" stroke="#FF8A2B" stroke-width="10" opacity=".8"/>
    <path d="M1010 130L1165 40H1510" stroke="#FF2BD6" stroke-opacity=".54" stroke-width="5"/>
    <path d="M1376 185H1452V365H1376V185Z" fill="#130A37" stroke="#20F7FF" stroke-width="4"/>
    <path d="M1420 78H1515V405H1420V78Z" fill="#1A0642" stroke="#FF2BD6" stroke-width="4"/>
  </g>
  <path d="M700 872H1515" stroke="#20F7FF" stroke-opacity=".56" stroke-width="4"/>
  <path d="M720 912H1575" stroke="#FF2BD6" stroke-opacity=".46" stroke-width="5"/>
  <path d="M760 930L610 1000H1600V930H760Z" fill="url(#floor)"/>
  <path d="M0 0H690V1000H0V0Z" fill="url(#left)"/>
  <circle cx="1160" cy="475" r="380" fill="#7C3CFF" opacity=".13"/>
  <circle cx="1325" cy="560" r="260" fill="#FF2BD6" opacity=".1"/>
  <defs>
    <linearGradient id="sky" x1="0" y1="0" x2="1600" y2="1000">
      <stop stop-color="#0B0647"/>
      <stop offset=".5" stop-color="#1A0744"/>
      <stop offset="1" stop-color="#04000D"/>
    </linearGradient>
    <linearGradient id="screen" x1="800" y1="170" x2="1340" y2="780">
      <stop stop-color="#20F7FF" stop-opacity=".18"/>
      <stop offset=".48" stop-color="#070018" stop-opacity=".82"/>
      <stop offset="1" stop-color="#FF2BD6" stop-opacity=".2"/>
    </linearGradient>
    <linearGradient id="floor" x1="1110" y1="930" x2="1110" y2="1000">
      <stop stop-color="#2B0C46"/>
      <stop offset="1" stop-color="#03000A"/>
    </linearGradient>
    <linearGradient id="left" x1="0" y1="500" x2="690" y2="500">
      <stop stop-color="#000"/>
      <stop offset=".72" stop-color="#050018" stop-opacity=".95"/>
      <stop offset="1" stop-color="#050018" stop-opacity=".16"/>
    </linearGradient>
    <filter id="holo" x="720" y="20" width="830" height="850" filterUnits="userSpaceOnUse">
      <feGaussianBlur stdDeviation="4" result="blur"/>
      <feMerge>
        <feMergeNode in="blur"/>
        <feMergeNode in="SourceGraphic"/>
      </feMerge>
    </filter>
  </defs>
</svg>
