<svg width="1600" height="1000" viewBox="0 0 1600 1000" fill="none" xmlns="http://www.w3.org/2000/svg">
  <rect width="1600" height="1000" fill="#060015"/>
  <path d="M0 0H1600V1000H0V0Z" fill="url(#street)"/>
  <g filter="url(#softGlow)">
    <path d="M720 155H875V840H720V155Z" fill="#0C0A2D" stroke="#20F7FF" stroke-width="5"/>
    <path d="M930 80H1120V850H930V80Z" fill="#16082F" stroke="#FF2BD6" stroke-width="5"/>
    <path d="M1165 220H1310V860H1165V220Z" fill="#09091E" stroke="#FF8A2B" stroke-width="5"/>
    <path d="M1340 135H1510V875H1340V135Z" fill="#0C0A2D" stroke="#20F7FF" stroke-width="5"/>
    <path d="M745 215H850M745 290H850M745 365H850M960 150H1090M960 220H1090M960 290H1090M1195 285H1280M1195 355H1280M1370 205H1480M1370 280H1480" stroke="#DFFBFF" stroke-opacity=".5" stroke-width="9"/>
    <path d="M615 555H1545" stroke="#FF2BD6" stroke-width="18" opacity=".64"/>
    <path d="M620 610H1510" stroke="#20F7FF" stroke-width="9" opacity=".7"/>
    <path d="M880 710C1030 645 1188 620 1450 640" stroke="#FF8A2B" stroke-width="7" opacity=".78"/>
  </g>
  <path d="M1030 235L1225 180" stroke="#F8FAFC" stroke-opacity=".42" stroke-width="3"/>
  <path d="M1160 320L1480 250" stroke="#FF2BD6" stroke-opacity=".5" stroke-width="4"/>
  <path d="M780 855L660 1000H1600V855H780Z" fill="url(#road)"/>
  <path d="M1010 810L870 1000M1190 807L1235 1000M1390 820L1540 1000" stroke="#FF2BD6" stroke-opacity=".55" stroke-width="4"/>
  <path d="M0 0H700V1000H0V0Z" fill="url(#left)"/>
  <circle cx="1250" cy="410" r="250" fill="#FF2BD6" opacity=".11"/>
  <circle cx="1050" cy="620" r="330" fill="#20F7FF" opacity=".09"/>
  <defs>
    <linearGradient id="street" x1="0" y1="0" x2="1600" y2="1000">
      <stop stop-color="#080333"/>
      <stop offset=".5" stop-color="#1E0B53"/>
      <stop offset="1" stop-color="#080013"/>
    </linearGradient>
    <linearGradient id="road" x1="1130" y1="855" x2="1130" y2="1000">
      <stop stop-color="#251047"/>
      <stop offset=".45" stop-color="#0F0322"/>
      <stop offset="1" stop-color="#020008"/>
    </linearGradient>
    <linearGradient id="left" x1="0" y1="500" x2="700" y2="500">
      <stop stop-color="#000"/>
      <stop offset=".72" stop-color="#050018" stop-opacity=".95"/>
      <stop offset="1" stop-color="#050018" stop-opacity=".2"/>
    </linearGradient>
    <filter id="softGlow" x="580" y="45" width="970" height="850" filterUnits="userSpaceOnUse">
      <feGaussianBlur stdDeviation="4" result="blur"/>
      <feMerge>
        <feMergeNode in="blur"/>
        <feMergeNode in="SourceGraphic"/>
      </feMerge>
    </filter>
  </defs>
</svg>
