<svg width="900" height="700" viewBox="0 0 900 700" fill="none" xmlns="http://www.w3.org/2000/svg">
  <rect width="900" height="700" rx="42" fill="#EF2337"/>
  <rect x="78" y="74" width="744" height="552" rx="34" fill="#090B12"/>
  <path d="M126 152H774M126 548H774" stroke="#F8FAFC" stroke-opacity=".28" stroke-width="10"/>
  <rect x="138" y="184" width="210" height="270" rx="20" fill="#F8FAFC"/>
  <rect x="386" y="184" width="376" height="72" rx="18" fill="#EF2337"/>
  <rect x="386" y="288" width="155" height="166" rx="18" fill="#B3BEC8"/>
  <rect x="570" y="288" width="192" height="166" rx="18" fill="#F8FAFC"/>
  <path d="M166 250H318M166 300H280M166 350H310M410 326H516M410 374H495M600 334H726M600 382H704" stroke="#090B12" stroke-width="12"/>
  <circle cx="698" cy="220" r="18" fill="#F8FAFC"/>
  <circle cx="744" cy="220" r="18" fill="#F8FAFC"/>
  <path d="M160 510H730" stroke="#20F7FF" stroke-width="12" stroke-linecap="round"/>
  <path d="M160 510H500" stroke="#FF8A2B" stroke-width="12" stroke-linecap="round"/>
</svg>
